<?xml version="1.0" standalone="no"?>
<!DOCTYPE svg PUBLIC "-//W3C//DTD SVG 20010904//EN"
 "http://www.w3.org/TR/2001/REC-SVG-20010904/DTD/svg10.dtd">
<svg version="1.0" xmlns="http://www.w3.org/2000/svg"
 width="64.000000pt" height="64.000000pt" viewBox="0 0 64.000000 64.000000"
 preserveAspectRatio="xMidYMid meet">

<g transform="translate(0.000000,64.000000) scale(0.100000,-0.100000)"
fill="#000000" stroke="none">
<path d="M290 596 c-5 -14 -19 -56 -30 -95 -12 -38 -27 -74 -34 -80 -7 -6 -59
-12 -116 -13 -138 -4 -141 -15 -26 -98 48 -34 86 -66 86 -72 0 -6 -14 -53 -30
-105 -17 -52 -28 -99 -25 -104 12 -19 43 -7 117 46 42 30 81 55 88 55 7 0 46
-25 88 -55 73 -53 105 -65 116 -46 3 4 -8 51 -24 102 -16 52 -30 99 -30 106 0
6 38 39 86 73 115 84 112 94 -28 98 -75 2 -109 7 -117 16 -7 8 -24 54 -39 103
-23 73 -31 89 -50 91 -16 3 -25 -4 -32 -22z m58 -115 c30 -93 39 -100 147
-103 l90 -3 -68 -49 c-38 -27 -72 -59 -77 -72 -6 -16 -2 -46 15 -101 14 -43
25 -79 25 -81 0 -2 -32 19 -72 47 -40 28 -79 51 -88 51 -9 0 -48 -23 -88 -51
-40 -28 -72 -49 -72 -47 0 2 11 38 25 81 17 56 21 85 15 102 -5 13 -39 45 -77
72 l-68 48 90 3 c108 3 117 10 147 103 12 38 25 69 28 69 3 0 16 -31 28 -69z"/>
</g>
</svg>
